+8_ID_stride6.mot
nRows=8
nColumns=38

name +8_ID_stride6.mot
datacolumns 38
datarows 8
range 3.1650000000 3.2000000000
endheader
time	pelvis_tilt_moment	pelvis_list_moment	pelvis_rotation_moment	pelvis_tx_force	pelvis_ty_force	pelvis_tz_force	hip_flexion_r_moment	hip_adduction_r_moment	hip_rotation_r_moment	knee_angle_r_moment	ankle_angle_r_moment	subtalar_angle_r_moment	mtp_angle_r_moment	hip_flexion_l_moment	hip_adduction_l_moment	hip_rotation_l_moment	knee_angle_l_moment	ankle_angle_l_moment	subtalar_angle_l_moment	mtp_angle_l_moment	lumbar_extension_moment	lumbar_bending_moment	lumbar_rotation_moment	arm_flex_r_moment	arm_add_r_moment	arm_rot_r_moment	elbow_flex_r_moment	pro_sup_r_moment	wrist_flex_r_moment	wrist_dev_r_moment	arm_flex_l_moment	arm_add_l_moment	arm_rot_l_moment	elbow_flex_l_moment	pro_sup_l_moment	wrist_flex_l_moment	wrist_dev_l_moment
        3.1650000000	        7.3339762718	       11.5179044797	       34.5410380829	      -14.1399315198	      -49.7323631572	      -84.2245906256	      -12.8932306920	       -7.6733722540	        0.6360139568	       -0.1894809130	        2.4654730567	       -0.5194770839	        0.1394246168	       15.8495776112	      -49.4119306596	       -9.5998914557	       16.3767829453	     -182.5841623291	       23.0698993965	       -0.0318345800	       25.6741444633	       11.0274959266	       44.0173843581	        7.7240876464	        5.7720341279	        4.6495877215	        5.3255212440	        0.0344543388	        0.6034081502	       -0.3366802378	       -0.7554035775	       -2.3074032987	       -3.7105973821	        5.0013371747	       -0.2208510917	       -0.3273409318	       -0.5171355537	
        3.1700000000	       10.2690522830	       -0.3159314336	       30.2139659853	      -27.2432794622	      -62.1046329927	      -91.8296985110	      -14.5173038623	      -10.1635825332	        1.2314721177	       -0.6770096853	        2.5497163686	       -0.6142833842	        0.1404200682	       13.2662368603	      -46.3464174423	       -7.8235470469	        8.2657489497	     -172.7906040157	       22.9929035747	       -0.0380366015	       14.8734050473	        6.2122414219	       45.1487245152	        7.7332735211	        5.8438581008	        4.7546095789	        4.8425399922	        0.0500353629	        0.6017195876	       -0.2873803732	       -1.1026982391	       -2.8585050235	       -4.0041916760	        4.3954991050	       -0.2187768269	       -0.3686816336	       -0.4687932856	
        3.1750000000	       14.0547595531	      -20.4267064714	       26.0857277029	      -36.2641730003	      -64.9069082042	      -92.1256910837	      -16.5906872310	      -12.8916851733	        1.7735118474	       -1.2539600930	        2.6318529648	       -0.7122047620	        0.1422260408	        6.3464185214	      -42.6686395281	       -7.7259481436	       -3.8270548778	     -162.9279767270	       22.5542425509	       -0.0441878159	        5.0195738191	        1.6447873940	       45.1597615253	        7.6778572456	        5.8203028797	        4.7508690395	        4.3514100099	        0.0607155392	        0.5932230098	       -0.2412355969	       -1.3673436087	       -3.1941745282	       -4.0744915136	        3.7992199675	       -0.2132844698	       -0.3874382661	       -0.4173680744	
        3.1800000000	       18.5809634972	      -39.8055291145	       22.4908544525	      -41.2080704930	      -61.8970451249	      -85.5227153562	      -19.3585400766	      -15.3659317602	        2.1144930841	       -1.9415249356	        2.7062818587	       -0.8067998788	        0.1446848918	       -1.7808260373	      -37.8674430527	       -8.9232091063	      -14.5448339098	     -152.0155580522	       21.1405485974	       -0.0499273270	       -2.9769629531	       -2.6181974672	       43.5309581509	        7.3122894514	        5.5598104216	        4.5653703573	        3.8754369722	        0.0661223349	        0.5619598605	       -0.2008913821	       -1.5560048960	       -3.3099280201	       -4.0338188964	        3.2357705808	       -0.2013981456	       -0.3911039232	       -0.3650615988	
        3.1850000000	       23.0653697319	      -48.2917104993	       18.9002374728	      -43.2699306332	      -52.0300568154	      -81.2146063714	      -22.6511391030	      -16.8353964887	        2.1989483966	       -2.6964987005	        2.7709203554	       -0.8892041982	        0.1476146075	       -2.4991390850	      -31.9508035612	       -9.3325306120	      -19.4365965234	     -138.8822849651	       20.0417424712	       -0.0545517519	       -8.4549930673	       -6.6410695539	       40.7967317893	        6.8109305915	        5.1362410841	        4.2461110188	        3.4393846124	        0.0675095022	        0.5198956766	       -0.1680567972	       -1.6948411775	       -3.2257465759	       -3.7900217800	        2.7235369224	       -0.1858843522	       -0.3752518430	       -0.3148720194	
        3.1900000000	       26.3816821954	      -41.2115160266	       14.5057897975	      -43.1448070334	      -39.6227598428	      -81.2792883014	      -26.2378909483	      -16.5294708611	        1.8961411889	       -3.4737896416	        2.8254155216	       -0.9542676831	        0.1508229578	        9.2560746406	      -25.6480831507	       -7.2218172750	      -16.8511645431	     -123.4955027713	       19.4080087379	       -0.0571140846	      -11.2249566899	      -10.4314111599	       37.4380563583	        6.2113550261	        4.5703378093	        3.8292989988	        3.0524928089	        0.0649694911	        0.4699083175	       -0.1430266386	       -1.8167164535	       -2.9250929462	       -3.4279543595	        2.2644282065	       -0.1676784552	       -0.3459582102	       -0.2680442717	
        3.1950000000	       25.7688686016	      -26.2456572611	        9.7561626482	      -41.2502689800	      -26.0444543286	      -80.1875279200	      -29.6998849296	      -14.5343715814	        1.3353144072	       -4.2451094978	        2.8758617151	       -1.0015192649	        0.1541503400	       26.2467864951	      -20.2182658009	       -3.4052507634	      -10.8950598837	     -106.5691804976	       18.4030728403	       -0.0556922548	      -10.8852021125	      -13.7794039111	       33.9045101318	        5.5552543280	        3.8771429200	        3.3452374526	        2.6987819953	        0.0605138189	        0.4155405406	       -0.1236071826	       -1.9812396804	       -2.4596443930	       -2.9761826026	        1.8336068554	       -0.1475616065	       -0.3081544608	       -0.2234326437	
        3.2000000000	       23.3012270374	       -9.3512942926	        7.5317648781	      -36.4662347191	      -18.5564655104	      -75.9467693374	      -33.0198830506	      -10.3499874392	        0.6471858079	       -5.0880907280	        2.9207364063	       -1.0375433139	        0.1571886125	       40.9568512361	      -15.5273926987	        0.2859719606	       -5.7721877578	      -89.7220677572	       16.8384723924	       -0.0510129566	       -9.5454048945	      -16.3781663001	       30.5044922184	        4.8549844022	        3.0828716102	        2.8238967610	        2.3432012142	        0.0554303632	        0.3592956763	       -0.1051665924	       -2.2167075413	       -1.8670519782	       -2.4681643035	        1.3961721509	       -0.1259826602	       -0.2660357796	       -0.1783276466	
